<?xml version="1.0" standalone="no"?>
<!DOCTYPE svg PUBLIC "-//W3C//DTD SVG 20010904//EN"
 "http://www.w3.org/TR/2001/REC-SVG-20010904/DTD/svg10.dtd">
<svg version="1.0" xmlns="http://www.w3.org/2000/svg"
 width="1280.000000pt" height="1138.000000pt" viewBox="0 0 1280.000000 1138.000000"
 preserveAspectRatio="xMidYMid meet">
<g transform="translate(0.000000,1138.000000) scale(0.100000,-0.100000)"
fill="#000000" stroke="none">
<path d="M6221 11355 c-179 -37 -292 -83 -428 -177 -77 -53 -209 -184 -260
-258 -28 -42 -465 -798 -3806 -6590 -671 -1163 -1307 -2267 -1414 -2452 -207
-358 -239 -425 -271 -559 -49 -208 -50 -239 -22 -396 46 -259 136 -438 301
-602 164 -165 343 -255 602 -301 109 -20 169 -20 5477 -20 5308 0 5368 0 5477
20 259 46 438 136 602 301 165 164 255 343 301 602 28 157 27 188 -22 396 -32
134 -64 201 -271 559 -107 185 -743 1289 -1414 2452 -3341 5792 -3778 6548
-3806 6590 -51 74 -183 205 -260 258 -138 95 -249 140 -433 177 -152 30 -205
30 -353 0z m370 -1355 c216 -374 2270 -3937 3918 -6793 671 -1164 1221 -2124
1221 -2132 0 -13 -599 -15 -5330 -15 -4725 0 -5330 2 -5330 15 0 8 322 574
717 1257 394 684 1144 1986 1668 2893 523 908 1396 2423 1941 3367 676 1174
994 1717 1004 1715 8 -1 94 -139 191 -307z"/>
<path d="M6315 7454 c-11 -2 -45 -9 -75 -15 -95 -18 -231 -91 -312 -167 -142
-133 -216 -290 -225 -477 -5 -93 2 -142 91 -670 53 -313 131 -770 172 -1015
92 -546 101 -595 126 -643 31 -61 95 -124 157 -154 49 -25 67 -28 151 -28 76
0 104 4 141 21 86 40 166 131 189 216 10 35 28 137 134 768 36 212 104 615
152 895 79 469 86 518 81 610 -9 185 -70 319 -206 456 -133 133 -273 195 -461
204 -52 2 -104 2 -115 -1z"/>
<path d="M6310 3540 c-158 -20 -287 -85 -406 -205 -134 -134 -204 -302 -204
-490 0 -114 23 -206 76 -314 38 -76 62 -110 128 -176 144 -145 292 -207 496
-207 204 0 352 62 496 207 134 134 204 302 204 490 0 308 -209 588 -500 671
-89 25 -201 35 -290 24z"/>
</g>
</svg>
